<?xml version="1.0" standalone="no"?>
<!DOCTYPE svg PUBLIC "-//W3C//DTD SVG 1.1//EN" "http://www.w3.org/Graphics/SVG/1.1/DTD/svg11.dtd" >
<svg xmlns="http://www.w3.org/2000/svg" xmlns:xlink="http://www.w3.org/1999/xlink" version="1.1">
<metadata></metadata>
<defs>
<font id="factoriabook" horiz-adv-x="1331" >
<font-face units-per-em="2048" ascent="1669" descent="-379" />
<missing-glyph horiz-adv-x="552" />
<glyph unicode="&#xfb01;" horiz-adv-x="1402" d="M68 0v119h192v864h-180v123h182v111q0 279 279 278h157v-123h-157q-78 0 -111 -32.5t-33 -110.5v-123h281v-123h-279v-864h242v-119h-573zM825 0v119h185v868h-185v119h324v-987h176v-119h-500zM999 1274v180h160v-180h-160z" />
<glyph unicode="&#xfb02;" horiz-adv-x="1402" d="M68 0v119h192v864h-180v123h182v111q0 279 279 278h157v-123h-157q-78 0 -111 -32.5t-33 -110.5v-123h281v-123h-279v-864h242v-119h-573zM825 0v119h185v1257h-185v119h324v-1376h176v-119h-500z" />
<glyph horiz-adv-x="0" />
<glyph unicode="&#xd;" horiz-adv-x="681" />
<glyph unicode=" "  horiz-adv-x="552" />
<glyph unicode="&#x09;" horiz-adv-x="552" />
<glyph unicode="&#xa0;" horiz-adv-x="552" />
<glyph unicode="!" horiz-adv-x="655" d="M233 0v205h189v-205h-189zM238 1434h180l-41 -1028h-98z" />
<glyph unicode="&#x22;" horiz-adv-x="825" d="M160 1434h198l-53 -467h-92zM467 1434h199l-54 -467h-92z" />
<glyph unicode="#" horiz-adv-x="1603" d="M119 434v123h289l110 377h-260v123h295l109 377h137l-109 -377h414l108 377h138l-109 -377h242v-123h-277l-110 -377h247v-123h-282l-125 -434h-137l125 434h-414l-125 -434h-137l125 434h-254zM545 557h413l109 377h-414z" />
<glyph unicode="$" horiz-adv-x="1269" d="M131 375v57h148v-67q0 -135 30.5 -182.5t116.5 -47.5h139v539l-131 31q-82 18 -123 35.5t-88 52.5q-88 72 -88 278q0 197 67.5 280t223.5 83h135v188h131v-188h129q152 0 219.5 -83t67.5 -280v-55h-147v65q0 127 -32 172t-116 45h-125v-507l152 -35q113 -27 174 -64 q125 -74 125 -317q0 -205 -67.5 -290t-223.5 -85h-156v-188h-131v188h-143q-152 0 -219.5 85t-67.5 290zM287 1081q0 -131 37 -174q41 -42 178 -73l63 -15v479h-131q-84 0 -115.5 -45t-31.5 -172zM688 135h152q86 0 116.5 47t30.5 183q0 141 -35 186q-35 43 -170 74l-94 22 v-512z" />
<glyph unicode="%" horiz-adv-x="1347" d="M127 1016v270q0 78 34.5 113t112.5 35h154q76 0 111.5 -35t35.5 -113v-270q0 -78 -35.5 -113t-111.5 -35h-154q-78 0 -112.5 35t-34.5 113zM223 0l778 1434h123l-778 -1434h-123zM238 1020q0 -29 10 -39t39 -10h129q29 0 39 10t10 39v262q0 29 -10.5 39t-38.5 10h-129 q-29 0 -39 -10t-10 -39v-262zM772 147v271q0 78 36 112.5t112 34.5h153q78 0 113 -34.5t35 -112.5v-271q0 -78 -35 -112.5t-113 -34.5h-153q-76 0 -112 35t-36 112zM883 152q0 -29 10 -39.5t39 -10.5h129q29 0 39 10.5t10 39.5v262q0 29 -10 39t-39 10h-129q-29 0 -39 -10.5 t-10 -38.5v-262z" />
<glyph unicode="&#x26;" horiz-adv-x="1396" d="M174 401q0 162 35 236t117 100q-70 31 -103 102.5t-33 213.5q0 207 68 294t219 87h344q287 0 287 -287v-129h-147v133q0 80 -34 113.5t-114 33.5h-328q-86 0 -116.5 -50t-30.5 -195q0 -150 31 -199q33 -49 116 -49h820v-133h-166v-385q0 -287 -287 -287h-391 q-154 0 -220.5 89t-66.5 312zM322 403q0 -166 30 -217q33 -51 117 -51h375q80 0 113.5 34t33.5 114v389h-522q-82 0 -117 -54q-31 -53 -30 -215z" />
<glyph unicode="'" horiz-adv-x="518" d="M160 1434h198l-53 -467h-92z" />
<glyph unicode="(" horiz-adv-x="755" d="M221 70v1208q0 287 287 287h88v-135h-80q-80 0 -113.5 -34t-33.5 -114v-1216q0 -80 33.5 -114t113.5 -34h80v-135h-88q-287 0 -287 287z" />
<glyph unicode=")" horiz-adv-x="755" d="M160 -82h80q80 0 113.5 34t33.5 114v1216q0 80 -34 114t-113 34h-80v135h88q287 0 287 -287v-1208q0 -287 -287 -287h-88v135z" />
<glyph unicode="*" horiz-adv-x="872" d="M86 1135l39 120l276 -122l-28 301h127l-29 -301l277 120l38 -120l-294 -66l200 -227l-102 -74l-154 260l-153 -262l-103 76l201 227z" />
<glyph unicode="+" horiz-adv-x="1089" d="M160 696v123h323v324h123v-324h324v-123h-324v-323h-123v323h-323z" />
<glyph unicode="," horiz-adv-x="507" d="M121 -252l129 252h-94v209h196v-152q0 -53 -12 -80q-12 -33 -64 -112l-73 -117h-82z" />
<glyph unicode="-" horiz-adv-x="917" d="M156 606v139h606v-139h-606z" />
<glyph unicode="." horiz-adv-x="507" d="M156 0v209h196v-209h-196z" />
<glyph unicode="/" horiz-adv-x="999" d="M70 -143l725 1720h135l-725 -1720h-135z" />
<glyph unicode="0" horiz-adv-x="1304" d="M160 287v860q0 287 286 287h412q287 0 287 -287v-860q0 -287 -287 -287h-412q-287 0 -286 287zM307 283q0 -80 34 -114t114 -34h395q80 0 113.5 34t33.5 114v868q0 80 -33.5 113.5t-113.5 33.5h-395q-80 0 -114 -33.5t-34 -113.5v-868z" />
<glyph unicode="1" horiz-adv-x="931" d="M82 1178v137l350 119h127v-1307h320v-127h-795v127h328v1155z" />
<glyph unicode="2" horiz-adv-x="1228" d="M147 0v367q0 113 93 182q39 27 202 113l340 174q53 27 82 43q66 45 66 96v176q0 80 -34 113.5t-114 33.5h-319q-80 0 -114 -33.5t-34 -113.5v-137h-147v133q0 287 287 287h336q287 0 286 -287v-172q0 -111 -92 -182q-39 -27 -203 -113l-340 -174q-55 -27 -80 -43 q-68 -39 -67 -96v-232h655v281h140v-416h-943z" />
<glyph unicode="3" horiz-adv-x="1220" d="M119 348v60h147v-64q0 -121 33 -165t115 -44h381q84 0 114 51q33 51 33 217q0 164 -33 215q-31 53 -114 54h-377v133h360q86 0 117 50t31 196q0 152 -33 198q-31 49 -115 49h-348q-82 0 -114.5 -44t-32.5 -164v-64h-148v59q0 186 67.5 267.5t219.5 81.5h364 q156 0 223.5 -86t67.5 -297q0 -143 -33.5 -213t-105.5 -101q86 -29 119 -96q37 -70 37 -238q0 -223 -68 -313t-223 -90h-397q-152 0 -219.5 81t-67.5 267z" />
<glyph unicode="4" horiz-adv-x="1275" d="M70 496l737 938h168v-918h215v-135h-215v-254h205v-127h-590v127h237v254h-737zM244 516h583v737z" />
<glyph unicode="5" horiz-adv-x="1220" d="M152 287v121h147v-125q0 -80 34 -114t113 -34h340q80 0 114 34t34 114v370q0 82 -45 115t-168 33q-223 0 -410 -129l-147 47v715h897v-136h-750v-522q90 82 183.5 121t228.5 39q193 0 275.5 -67.5t82.5 -219.5v-362q0 -287 -286 -287h-357q-287 0 -286 287z" />
<glyph unicode="6" horiz-adv-x="1249" d="M160 287v860q0 287 286 287h340q287 0 287 -287v-115h-147v119q0 147 -148 147h-323q-147 0 -148 -147v-416q88 80 176 119q92 41 244 41q199 0 283 -67.5t84 -219.5v-321q0 -287 -287 -287h-361q-287 0 -286 287zM307 283q0 -80 34 -114t114 -34h344q80 0 113.5 34 t33.5 114v329q0 84 -46 116t-177 32q-133 0 -225.5 -30.5t-190.5 -98.5v-348z" />
<glyph unicode="7" horiz-adv-x="1179" d="M86 1036v398h1016v-99l-541 -1335h-155l524 1298h-705v-262h-139z" />
<glyph unicode="8" horiz-adv-x="1253" d="M127 401q0 162 35 236q35 68 121 96q-74 31 -107 100.5t-33 215.5q0 211 68 298t223 87h385q156 0 223.5 -87t67.5 -298q0 -145 -33 -215t-106 -101q86 -29 119 -96q37 -72 36 -236q0 -223 -67.5 -312t-222.5 -89h-418q-156 0 -223.5 89t-67.5 312zM279 401 q0 -164 30 -215q33 -51 117 -51h401q84 0 115 51q33 51 33 215q0 162 -33 213q-31 54 -115 54h-401q-82 0 -117 -54q-31 -53 -30 -213zM295 1051q0 -152 31 -201q35 -49 116 -49h369q84 0 115 49q33 47 32 201q0 152 -32 198q-31 49 -115 49h-369q-82 0 -116 -49 q-31 -49 -31 -198z" />
<glyph unicode="9" horiz-adv-x="1249" d="M156 817v330q0 287 286 287h361q287 0 287 -287v-860q0 -287 -287 -287h-340q-287 0 -287 287v114h148v-118q0 -147 147 -148h324q147 0 147 148v407q-92 -82 -178 -121t-242 -39q-199 0 -282.5 68t-83.5 219zM303 813q0 -84 46 -115.5t177 -31.5q133 0 225.5 30.5 t190.5 98.5v356q0 80 -34 113.5t-113 33.5h-344q-80 0 -114 -33.5t-34 -113.5v-338z" />
<glyph unicode=":" horiz-adv-x="507" d="M156 0v209h196v-209h-196zM156 897v209h196v-209h-196z" />
<glyph unicode=";" horiz-adv-x="507" d="M121 -252l129 252h-94v209h196v-152q0 -53 -12 -80q-12 -33 -64 -112l-73 -117h-82zM156 897v209h196v-209h-196z" />
<glyph unicode="&#x3c;" horiz-adv-x="1089" d="M152 651v144l761 483v-139l-659 -416l659 -414v-139z" />
<glyph unicode="=" horiz-adv-x="1089" d="M160 504v133h770v-133h-770zM160 854v133h770v-133h-770z" />
<glyph unicode="&#x3e;" horiz-adv-x="1089" d="M176 170v139l660 414l-660 416v139l762 -483v-144z" />
<glyph unicode="?" horiz-adv-x="1189" d="M86 1006v141q0 287 287 287h407q287 0 287 -287v-121q0 -102 -70 -170q-74 -68 -225 -141l-53 -27q-84 -41 -116 -70.5t-32 -64.5v-168h-147v164q0 98 63 153q68 61 232 142l53 26q88 43 118 74t30 82v125q0 80 -34 113.5t-114 33.5h-391q-80 0 -114 -33.5t-34 -113.5 v-145h-147zM424 0v223h147v-223h-147z" />
<glyph unicode="@" horiz-adv-x="1947" d="M217 -41v1188q0 287 287 287h940q287 0 287 -287v-758q0 -287 -287 -287h-176l-41 136q-150 -156 -359 -156q-158 0 -231.5 69.5t-73.5 217.5v368q0 147 74 217t231 70q209 0 359 -156l41 148h82v-815h86q98 0 143 45t45 143v758q0 98 -45 143t-143 45h-924 q-98 0 -143 -45t-45 -143v-1188q0 -98 45 -143t143 -45h1038v-99h-1046q-287 0 -287 287zM686 356q0 -88 41 -125.5t143 -37.5q104 0 185.5 29.5t171.5 103.5v454q-90 74 -170 103.5t-184.5 29.5t-145.5 -37.5t-41 -125.5v-394z" />
<glyph unicode="A" horiz-adv-x="1585" d="M45 0v127h184l433 1180h-173v127h388l479 -1307h184v-127h-536v127h200l-106 295h-615l-106 -295h196v-127h-528zM530 557h519l-258 723z" />
<glyph unicode="B" horiz-adv-x="1413" d="M94 0v127h205v1180h-205v127h885q156 0 223.5 -86t67.5 -297q0 -141 -34 -210t-106 -100q84 -27 120 -100.5t36 -234.5q0 -223 -67.5 -314.5t-223.5 -91.5h-901zM446 135h541q84 0 115 51q33 51 33 220q0 166 -33 217q-31 53 -115 53h-541v-541zM446 809h525 q86 0 116.5 49t30.5 194.5t-30.5 195.5t-116.5 50h-525v-489z" />
<glyph unicode="C" horiz-adv-x="1298" d="M160 287v860q0 287 286 287h426q287 0 287 -287v-156h-147v160q0 80 -34 113.5t-114 33.5h-409q-80 0 -114 -33.5t-34 -113.5v-868q0 -80 34 -114t114 -34h409q80 0 114 34t34 114v159h147v-155q0 -287 -287 -287h-426q-287 0 -286 287z" />
<glyph unicode="D" horiz-adv-x="1447" d="M94 0v127h205v1180h-205v127h907q287 0 287 -287v-860q0 -287 -287 -287h-907zM446 135h547q80 0 114 34t34 114v868q0 80 -34 113.5t-114 33.5h-547v-1163z" />
<glyph unicode="E" d="M94 0v127h205v1180h-205v127h1100v-369h-139v238h-609v-504h601v-131h-601v-537h609v238h139v-369h-1100z" />
<glyph unicode="F" horiz-adv-x="1288" d="M94 0v127h205v1180h-205v127h1100v-369h-139v238h-609v-521h601v-131h-601v-524h238v-127h-590z" />
<glyph unicode="G" horiz-adv-x="1337" d="M160 287v860q0 287 286 287h449q287 0 287 -287v-135h-148v139q0 80 -33.5 113.5t-113.5 33.5h-432q-80 0 -114 -33.5t-34 -113.5v-868q0 -80 34 -114t114 -34h432q80 0 113.5 34t33.5 114v317h-383v135h531v-448q0 -287 -287 -287h-449q-287 0 -286 287z" />
<glyph unicode="H" horiz-adv-x="1605" d="M94 0v127h205v1180h-205v127h557v-127h-205v-486h713v486h-205v127h557v-127h-204v-1180h204v-127h-557v127h205v559h-713v-559h205v-127h-557z" />
<glyph unicode="I" horiz-adv-x="794" d="M102 0v127h222v1180h-222v127h590v-127h-221v-1180h221v-127h-590z" />
<glyph unicode="J" horiz-adv-x="1273" d="M94 287v229h148v-233q0 -80 33.5 -114t113.5 -34h316q80 0 113.5 34t33.5 114v1024h-238v127h574v-127h-189v-1020q0 -287 -286 -287h-332q-287 0 -287 287z" />
<glyph unicode="K" horiz-adv-x="1505" d="M94 0v127h205v1180h-205v127h590v-127h-238v-727l615 727h-174v127h524v-127h-176l-393 -451l461 -729h165v-127h-249l-469 752l-304 -349v-276h238v-127h-590z" />
<glyph unicode="L" horiz-adv-x="1273" d="M94 0v127h205v1180h-205v127h598v-127h-246v-1172h598v275h140v-410h-1090z" />
<glyph unicode="M" horiz-adv-x="1923" d="M94 0v127h205v1180h-205v127h389l478 -1069l479 1069h389v-127h-205v-1180h205v-127h-578v127h230v1087l-455 -1028h-133l-455 1028v-1087h230v-127h-574z" />
<glyph unicode="N" horiz-adv-x="1613" d="M94 0v127h205v1180h-205v127h369l737 -1196v1069h-229v127h557v-127h-193v-1307h-141l-760 1235v-1108h230v-127h-570z" />
<glyph unicode="O" horiz-adv-x="1345" d="M160 287v860q0 287 286 287h453q287 0 287 -287v-860q0 -287 -287 -287h-453q-287 0 -286 287zM307 283q0 -80 34 -114t114 -34h436q80 0 113.5 34t33.5 114v868q0 80 -33.5 113.5t-113.5 33.5h-436q-80 0 -114 -33.5t-34 -113.5v-868z" />
<glyph unicode="P" horiz-adv-x="1372" d="M94 0v127h205v1180h-205v127h877q287 0 286 -287v-287q0 -287 -286 -287h-525v-446h238v-127h-590zM446 709h517q80 0 113.5 33.5t33.5 113.5v295q0 80 -34 113.5t-113 33.5h-517v-589z" />
<glyph unicode="Q" horiz-adv-x="1345" d="M160 287v860q-1 287 286 287h453q287 0 287 -287v-860q0 -287 -287 -287h-151v-266h-148v266h-154q-287 0 -286 287zM307 283q0 -80 34 -114t114 -34h436q80 0 113.5 34t33.5 114v868q0 80 -33.5 113.5t-113.5 33.5h-436q-80 0 -114 -33.5t-34 -113.5v-868z" />
<glyph unicode="R" horiz-adv-x="1458" d="M94 0v127h205v1180h-205v127h877q287 0 286 -287v-246q0 -283 -280 -287l242 -487h190v-127h-287l-301 606h-375v-479h213v-127h-565zM446 741h517q80 0 113.5 34t33.5 114v262q0 80 -34 113.5t-113 33.5h-517v-557z" />
<glyph unicode="S" horiz-adv-x="1253" d="M131 287v145h148v-158q0 -80 33.5 -113.5t113.5 -33.5h401q80 0 114 34t34 113v172q0 76 -33 112t-115 54l-397 93q-131 31 -205 77q-90 61 -90 215v150q0 287 287 287h393q287 0 287 -287v-131h-148v143q0 80 -33.5 114t-113.5 34h-377q-80 0 -113.5 -34t-33.5 -114 v-145q0 -76 32.5 -112t114.5 -54l397 -92q131 -31 205 -80q90 -57 90 -213v-176q0 -287 -286 -287h-418q-287 0 -287 287z" />
<glyph unicode="T" horiz-adv-x="1355" d="M86 1024v410h1184v-410h-140v274h-378v-1171h237v-127h-622v127h237v1171h-379v-274h-139z" />
<glyph unicode="U" horiz-adv-x="1552" d="M86 1307v127h541v-127h-205v-1024q0 -80 33.5 -114t113.5 -34h414q80 0 113.5 34t33.5 114v1024h-204v127h540v-127h-188v-1020q0 -287 -287 -287h-430q-287 0 -287 287v1020h-188z" />
<glyph unicode="V" horiz-adv-x="1527" d="M45 1307v127h533v-127h-191l377 -1145l383 1145h-189v127h525v-127h-185l-450 -1307h-168l-451 1307h-184z" />
<glyph unicode="W" horiz-adv-x="2142" d="M45 1307v127h535v-127h-193l275 -1119l339 1246h144l340 -1246l274 1119h-192v127h530v-127h-186l-352 -1307h-158l-328 1202l-328 -1202h-161l-353 1307h-186z" />
<glyph unicode="X" horiz-adv-x="1429" d="M45 0v127h166l420 604l-404 576h-168v127h494v-127h-160l328 -469l326 469h-160v127h483v-127h-170l-403 -576l422 -604h165v-127h-495v127h164l-344 496l-342 -496h163v-127h-485z" />
<glyph unicode="Y" horiz-adv-x="1482" d="M49 1307v127h524v-127h-186l356 -660l357 660h-187v127h521v-127h-179l-440 -799v-381h238v-127h-623v127h238v381l-441 799h-178z" />
<glyph unicode="Z" horiz-adv-x="1290" d="M131 0v109l842 1191h-676v-276h-139v410h993v-109l-842 -1192h711v277h139v-410h-1028z" />
<glyph unicode="[" horiz-adv-x="772" d="M221 -217v1782h391v-135h-243v-1512h243v-135h-391z" />
<glyph unicode="\" horiz-adv-x="999" d="M70 1577h135l725 -1720h-135z" />
<glyph unicode="]" horiz-adv-x="772" d="M160 -82h243v1512h-243v135h391v-1782h-391v135z" />
<glyph unicode="^" horiz-adv-x="1089" d="M205 848l256 586h168l256 -586h-131l-209 495l-209 -495h-131z" />
<glyph unicode="_" horiz-adv-x="1187" d="M37 -90h1114v-115h-1114v115z" />
<glyph unicode="`" horiz-adv-x="1284" d="M463 1864h186l185 -295h-107z" />
<glyph unicode="a" horiz-adv-x="1204" d="M106 319q0 168 64 232q63 63 215 80q190 23 438 31v178q0 78 -32.5 110.5t-110.5 32.5h-254q-78 0 -110.5 -32.5t-32.5 -110.5v-31h-140v18q0 279 279 279h262q279 0 279 -279v-708h172v-119h-312v152q-74 -86 -163 -123t-232 -37q-172 0 -247 76.5t-75 250.5zM246 319 q0 -117 39 -160.5t145 -43.5q127 0 209 30q80 29 184 103v317l-434 -49q-84 -10 -113.5 -49t-29.5 -148z" />
<glyph unicode="b" horiz-adv-x="1261" d="M74 0v119h184v1257h-184v119h323v-541q51 45 109 84q113 76 297 76q176 0 254 -66.5t78 -211.5v-566q0 -145 -78 -211.5t-254 -66.5q-98 0 -178 22q-78 25 -119 52q-45 31 -109 86v-152h-323zM397 252q104 -74 185 -102q82 -31 219 -31q111 0 152.5 31.5t41.5 111.5v582 q0 80 -42 111.5t-152 31.5q-137 0 -219 -31q-80 -29 -185 -102v-602z" />
<glyph unicode="c" horiz-adv-x="1077" d="M127 279v548q0 279 279 279h278q279 0 279 -279v-73h-140v82q0 78 -32.5 110.5t-110.5 32.5h-270q-78 0 -111 -33t-33 -110v-566q0 -78 33 -110.5t111 -32.5h270q78 0 110.5 33t32.5 110v82h140v-73q0 -279 -279 -279h-278q-279 0 -279 279z" />
<glyph unicode="d" horiz-adv-x="1249" d="M127 270v566q0 145 78 211.5t254 66.5q98 0 176 -24q76 -20 119 -52q53 -33 110 -84v422h-205v119h345v-1376h176v-119h-316v152q-68 -57 -110 -86q-117 -74 -295 -74q-176 0 -254 66.5t-78 211.5zM266 262q0 -80 42 -111.5t153 -31.5q137 0 219 31q80 28 184 102v602 q-104 74 -184 102q-84 31 -219 31q-111 0 -153 -31.5t-42 -111.5v-582z" />
<glyph unicode="e" horiz-adv-x="1093" d="M127 279v548q0 279 279 279h290q279 0 279 -279v-303h-709v-258q0 -78 33 -110.5t111 -32.5h282q78 0 111 32.5t33 110.5v80h139v-67q0 -279 -279 -279h-290q-279 0 -279 279zM266 639h570v201q0 78 -33 110.5t-111 32.5h-282q-78 0 -111 -32.5t-33 -110.5v-201z" />
<glyph unicode="f" horiz-adv-x="743" d="M68 0v119h192v864h-180v123h182v111q0 278 277 278h2h157v-123h-157q-78 0 -111 -32.5t-33 -110.5v-123h281v-123h-279v-864h242v-119h-573z" />
<glyph unicode="g" horiz-adv-x="1249" d="M127 299v537q0 145 78 211.5t254 66.5q98 0 176 -24q76 -20 119 -52q53 -33 110 -84v152h316v-119h-176v-1036q0 -279 -279 -279h-479v123h475q78 0 110.5 33t32.5 111v241q-68 -57 -110 -86q-117 -74 -295 -74q-176 0 -254 67t-78 212zM266 291q0 -80 42 -112t153 -32 q137 0 219 31q80 29 184 103v573q-104 74 -184 102q-84 31 -219 31q-111 0 -153 -31.5t-42 -111.5v-553z" />
<glyph unicode="h" horiz-adv-x="1343" d="M74 0v119h184v1257h-184v119h323v-539q100 84 176 121q78 39 213 39q164 0 240 -67.5t76 -210.5v-719h172v-119h-488v119h177v727q0 80 -38 111.5t-141 31.5q-121 0 -204 -31q-76 -29 -183 -102v-737h176v-119h-499z" />
<glyph unicode="i" horiz-adv-x="659" d="M82 0v119h184v868h-184v119h324v-987h176v-119h-500zM256 1274v180h160v-180h-160z" />
<glyph unicode="j" horiz-adv-x="550" d="M25 -240l98 35q74 27 108.5 60.5t34.5 93.5v1038h-184v119h324v-1147q0 -123 -66 -186.5t-213 -91.5l-102 -21v100zM256 1274v180h160v-180h-160z" />
<glyph unicode="k" horiz-adv-x="1232" d="M74 0v119h184v1257h-184v119h323v-1020l457 512h-145v119h458v-119h-157l-289 -317l319 -551h168v-119h-252l-325 571l-234 -256v-196h176v-119h-499z" />
<glyph unicode="l" horiz-adv-x="659" d="M82 0v119h184v1257h-184v119h324v-1376h176v-119h-500z" />
<glyph unicode="m" horiz-adv-x="1966" d="M74 0v119h184v868h-184v119h323v-148q102 86 174 121q76 39 195 39q233 0 283 -170q94 88 181 129t200 41q154 0 224 -68.5t70 -209.5v-721h172v-119h-487v119h176v729q0 78 -36 110.5t-122 32.5q-104 0 -183 -29.5t-183 -103.5v-18v-721h176v-119h-492v119h177v729 q0 78 -36 110.5t-122 32.5q-109 0 -189 -30q-74 -29 -178 -103v-739h176v-119h-499z" />
<glyph unicode="n" horiz-adv-x="1343" d="M74 0v119h184v868h-184v119h323v-150q100 84 176 121q78 39 213 39q164 0 240 -67.5t76 -210.5v-719h172v-119h-488v119h177v727q0 80 -40 111.5t-139 31.5q-121 0 -204 -31q-76 -29 -183 -102v-737h176v-119h-499z" />
<glyph unicode="o" horiz-adv-x="1116" d="M127 279v548q0 279 279 279h305q279 0 278 -279v-548q0 -279 -278 -279h-305q-279 0 -279 279zM266 270q0 -78 33 -110.5t111 -32.5h297q76 0 109.5 32.5t33.5 110.5v566q0 78 -34 110.5t-109 32.5h-297q-78 0 -111 -33t-33 -110v-566z" />
<glyph unicode="p" horiz-adv-x="1261" d="M74 -209h184v1196h-184v119h323v-152q51 45 109 84q113 76 297 76q176 0 254 -66.5t78 -211.5v-566q0 -145 -78 -211.5t-254 -66.5q-98 0 -178 22q-78 25 -119 52q-45 31 -109 86v-361h217v-119h-540v119zM397 252q104 -74 185 -102q82 -31 219 -31q111 0 152.5 31.5 t41.5 111.5v582q0 80 -42 111.5t-152 31.5q-137 0 -219 -31q-80 -29 -185 -102v-602z" />
<glyph unicode="q" horiz-adv-x="1257" d="M127 270v566q0 145 78 211.5t254 66.5q98 0 176 -24q76 -20 119 -52q53 -33 110 -84v152h324v-119h-184v-1196h184v-119h-541v119h217v361q-68 -57 -110 -86q-117 -74 -295 -74q-176 0 -254 66.5t-78 211.5zM266 262q0 -80 42 -111.5t153 -31.5q137 0 219 31 q80 29 184 102v602q-104 74 -184 102q-84 31 -219 31q-111 0 -153 -31.5t-42 -111.5v-582z" />
<glyph unicode="r" horiz-adv-x="860" d="M74 0v119h184v864l-184 4v119h323v-160l103 80q41 33 110.5 56.5t139.5 23.5h49v-135h-49q-90 0 -166 -30t-187 -99v-723h226v-119h-549z" />
<glyph unicode="s" horiz-adv-x="1069" d="M115 279v55h135v-64q0 -78 32.5 -110.5t110.5 -32.5h279q80 0 111.5 41t31.5 151q0 88 -26.5 120t-100.5 44l-321 54q-127 20 -182.5 80.5t-55.5 183.5q0 160 67.5 232.5t211.5 72.5h241q279 0 279 -279v-36h-135v45q0 78 -34 110.5t-110 32.5h-237q-80 0 -112 -38 t-32 -134q0 -76 28 -104.5t99 -40.5l322 -54q127 -20 182 -83.5t55 -198.5q0 -172 -67.5 -249t-210.5 -77h-283q-279 0 -278 279z" />
<glyph unicode="t" horiz-adv-x="757" d="M72 983v123h164v266h139v-266h276v-123h-276v-713q0 -78 33.5 -110.5t109.5 -32.5h133v-127h-137q-279 0 -278 279v704h-164z" />
<glyph unicode="u" d="M70 987v119h311v-846q0 -80 40 -111.5t138 -31.5q123 0 205 30q76 29 182 103v737h-205v119h344v-987h177v-119h-316v150q-98 -84 -178 -123q-76 -37 -211 -37q-164 0 -239.5 67.5t-75.5 210.5v719h-172z" />
<glyph unicode="v" horiz-adv-x="1191" d="M33 987v119h418v-119h-144l291 -874l291 874h-144v119h414v-119h-135l-340 -987h-176l-340 987h-135z" />
<glyph unicode="w" horiz-adv-x="1716" d="M33 987v119h418v-119h-144l209 -846l272 965h144l272 -965l209 846h-143v119h413v-119h-135l-268 -987h-158l-262 922l-262 -922h-162l-268 987h-135z" />
<glyph unicode="x" horiz-adv-x="1167" d="M33 0v119h129l336 440l-330 428h-131v119h430v-119h-141l264 -346l260 346h-141v119h413v-119h-129l-325 -430l336 -438h131v-119h-430v119h141l-273 356l-268 -356h141v-119h-413z" />
<glyph unicode="y" horiz-adv-x="1208" d="M33 987v119h418v-119h-146l287 -829l311 829h-141v119h414v-119h-134l-460 -1188h118v-127h-421v127h170l73 201l-358 987h-131z" />
<glyph unicode="z" horiz-adv-x="1073" d="M106 0v86l676 901h-508v-192h-131v311h820v-86l-676 -901h549v192h131v-311h-861z" />
<glyph unicode="{" horiz-adv-x="856" d="M139 625v127h35q147 0 148 155v371q0 287 286 287h88v-135h-80q-80 0 -113.5 -34t-33.5 -114v-375q0 -154 -147 -219q147 -61 147 -219v-403q0 -80 34 -114t113 -34h80v-135h-88q-287 0 -286 287v399q0 156 -148 156h-35z" />
<glyph unicode="|" horiz-adv-x="667" d="M274 -442v2013h119v-2013h-119z" />
<glyph unicode="}" horiz-adv-x="856" d="M160 -82h80q80 0 113.5 34t33.5 114v403q0 158 148 219q-148 65 -148 219v375q0 80 -34 114t-113 34h-80v135h88q287 0 287 -287v-371q0 -156 147 -155h35v-127h-35q-147 0 -147 -156v-399q0 -287 -287 -287h-88v135z" />
<glyph unicode="~" horiz-adv-x="1130" d="M213 563v51q0 86 52 139.5t132 53.5q82 0 189.5 -71.5t144.5 -71.5q68 0 68 67v60h119v-52q0 -86 -52.5 -139t-132.5 -53q-66 0 -132 35.5t-118.5 71.5t-83.5 36q-68 0 -67 -67v-60h-119z" />
<glyph unicode="&#xa1;" horiz-adv-x="655" d="M233 901v205h189v-205h-189zM238 -328l41 1028h98l41 -1028h-180z" />
<glyph unicode="&#xa2;" horiz-adv-x="1179" d="M168 492v462q0 287 287 287h77v193h119v-193h78q287 0 287 -287v-65h-148v69q0 80 -33.5 114t-113.5 34h-74v-766h74q80 0 113.5 34t33.5 113v70h148v-65q0 -287 -287 -287h-78v-205h-119v205h-77q-287 0 -287 287zM315 487q0 -80 34 -113.5t114 -33.5h74v766h-74 q-80 0 -114 -34t-34 -114v-471z" />
<glyph unicode="&#xa3;" horiz-adv-x="1325" d="M102 0v135h127q23 0 32 9.5t9 31.5v471h-168v131h168v369q0 287 287 287h317q287 0 287 -287v-156h-147v160q0 80 -34 113.5t-114 33.5h-301q-80 0 -113.5 -33.5t-33.5 -113.5v-373h442v-131h-442v-512h612v246h139v-381h-1067z" />
<glyph unicode="&#xa4;" horiz-adv-x="1292" d="M127 256l149 150q-33 63 -32 163v328q0 94 30 160l-147 147l92 94l148 -147q63 33 163 33h232q100 0 164 -33l147 147l92 -94l-147 -147q31 -66 31 -160v-328q0 -100 -33 -163l149 -150l-92 -94l-151 151q-66 -31 -160 -30h-232q-96 0 -159 30l-152 -151zM387 561 q0 -80 34 -113.5t114 -33.5h223q80 0 113.5 33.5t33.5 113.5v344q0 80 -33.5 114t-113.5 34h-223q-80 0 -114 -34t-34 -114v-344z" />
<glyph unicode="&#xa5;" horiz-adv-x="1462" d="M49 1307v127h496v-127h-168l340 -615h33l340 615h-168v127h491v-127h-168l-338 -615h244v-127h-315l-31 -57v-66h346v-127h-346v-188h217v-127h-582v127h217v188h-346v127h346v66l-30 57h-316v127h244l-338 615h-168z" />
<glyph unicode="&#xa6;" horiz-adv-x="667" d="M274 348h119v-790h-119v790zM274 780v791h119v-791h-119z" />
<glyph unicode="&#xa7;" horiz-adv-x="1144" d="M147 94v56h132v-72q0 -80 33.5 -114t113.5 -34h274q82 0 115 42t33 151q0 76 -31 112.5t-96 47.5l-322 53q-125 20 -181 88t-56 213q0 121 20.5 180.5t71.5 97.5q-45 33 -61.5 73t-16.5 126q0 166 69.5 243t217.5 77h221q287 0 287 -287v-33h-131v49q0 80 -34 114 t-114 34h-233q-82 0 -115 -41t-33 -146q0 -76 31 -111.5t96 -45.5l330 -54q121 -20 175 -86.5t54 -212.5q0 -115 -22.5 -175t-69.5 -101q45 -33 61.5 -75t16.5 -132q0 -170 -68.5 -247t-218.5 -77h-262q-287 0 -287 287zM297 639q0 -88 30.5 -129t96.5 -51l336 -56 q55 -10 78.5 41.5t23.5 171.5q0 84 -30.5 124t-96.5 51l-344 57q-49 8 -71.5 -42t-22.5 -167z" />
<glyph unicode="&#xa8;" horiz-adv-x="1359" d="M426 1569v205h160v-205h-160zM774 1569v205h160v-205h-160z" />
<glyph unicode="&#xa9;" horiz-adv-x="1783" d="M217 287v860q0 287 287 287h776q287 0 287 -287v-860q0 -287 -287 -287h-776q-287 0 -287 287zM324 287q0 -98 45 -143.5t143 -45.5h760q98 0 143 45.5t45 143.5v860q0 98 -45 143t-143 45h-760q-98 0 -143 -45t-45 -143v-860zM557 479v475q0 117 54 171.5t171 54.5h217 q117 0 171.5 -54.5t54.5 -171.5v-94h-131v107q0 53 -20.5 73.5t-74.5 20.5h-217q-53 0 -73.5 -20.5t-20.5 -73.5v-500q0 -53 20.5 -73.5t73.5 -20.5h217q53 0 74 20.5t21 73.5v106h131v-94q0 -117 -54.5 -171t-171.5 -54h-217q-117 0 -171 54t-54 171z" />
<glyph unicode="&#xaa;" horiz-adv-x="886" d="M127 928q0 109 46 157t149 60q133 14 262 16v92q0 86 -86 86h-156q-86 0 -86 -86v-24h-109v20q0 184 185 185h174q184 0 184 -185v-436h111v-98h-217v96q-102 -102 -248 -102q-113 0 -161 50t-48 169zM143 479v99h658v-99h-658zM233 934q0 -74 24 -100.5t87 -26.5 q131 0 240 84v196l-265 -28q-49 -4 -67.5 -31t-18.5 -94z" />
<glyph unicode="&#xab;" horiz-adv-x="897" d="M82 575v82l262 385h148l-289 -426l289 -423h-148zM389 575v82l262 385h148l-289 -426l289 -423h-148z" />
<glyph unicode="&#xad;" horiz-adv-x="917" d="M156 606v139h606v-139h-606z" />
<glyph unicode="&#xae;" horiz-adv-x="782" d="M86 827v476q0 131 131 131h348q131 0 131 -131v-476q0 -131 -131 -131h-348q-131 0 -131 131zM141 827q0 -41 18.5 -59t59.5 -18h344q41 0 59.5 18t18.5 59v476q0 41 -18.5 59t-59.5 18h-344q-41 0 -59.5 -18.5t-18.5 -58.5v-476zM203 846v51h53v344h-53v51h260 q88 0 88 -88v-90q0 -88 -88 -88l69 -129h54v-51h-84l-99 180h-92v-129h58v-51h-166zM311 1079h148q20 0 28.5 7.5t8.5 29.5v86q0 23 -8.5 30t-28.5 7h-148v-160z" />
<glyph unicode="&#xaf;" horiz-adv-x="1269" d="M373 1569v123h524v-123h-524z" />
<glyph unicode="&#xb0;" horiz-adv-x="696" d="M147 1098v237q0 98 99 99h205q98 0 98 -99v-237q0 -99 -98 -99h-205q-98 0 -99 99zM246 1122q0 -16 6 -22t22 -6h148q16 0 22.5 6t6.5 22v189q0 16 -6.5 22t-22.5 6h-148q-16 0 -22 -6t-6 -22v-189z" />
<glyph unicode="&#xb1;" horiz-adv-x="1089" d="M160 250v123h770v-123h-770zM160 799v123h323v323h123v-323h324v-123h-324v-324h-123v324h-323z" />
<glyph unicode="&#xb2;" horiz-adv-x="729" d="M96 922v223q0 57 31 83.5t131 63.5l197 72q37 12 50 22.5t13 28.5v53q0 47 -15.5 62.5t-62.5 15.5h-137q-47 0 -62.5 -15t-15.5 -63v-30h-119v37q0 100 42 142t143 42h162q100 0 142 -43t42 -141v-80q0 -57 -31 -84t-131 -64l-196 -71q-37 -12 -50.5 -22.5t-13.5 -29.5 v-90h324v129h102v-241h-545z" />
<glyph unicode="&#xb3;" horiz-adv-x="735" d="M86 1137v2h119v-2q0 -66 14 -85.5t64 -19.5h155q49 0 63.5 19.5t14.5 89.5q0 68 -14.5 87t-63.5 19h-174v105h166q49 0 63.5 18.5t14.5 79.5t-14.5 79.5t-63.5 18.5h-139q-49 0 -63.5 -18.5t-14.5 -79.5v-8h-119v10q0 115 42 161t143 46h163q100 0 142.5 -46t42.5 -161 q0 -117 -76 -154q84 -25 84 -161q0 -121 -42 -168t-142 -47h-181q-100 0 -142 47t-42 168z" />
<glyph unicode="&#xb4;" horiz-adv-x="1271" d="M451 1569l184 295h186l-264 -295h-106z" />
<glyph unicode="&#xb6;" horiz-adv-x="1644" d="M154 860v287q0 287 286 287h1037v-127h-185v-1307h-147v1298h-148v-1298h-147v573h-410q-287 0 -286 287z" />
<glyph unicode="&#xb7;" horiz-adv-x="524" d="M164 571v209h196v-209h-196z" />
<glyph unicode="&#xb8;" horiz-adv-x="1206" d="M279 -188h172q49 0 63 14t14 59v115h131v-115q0 -106 -37.5 -145t-142.5 -39h-119z" />
<glyph unicode="&#xb9;" horiz-adv-x="536" d="M61 922v98h154v516l-154 -49v102l177 70h96v-639h145v-98h-418z" />
<glyph unicode="&#xba;" horiz-adv-x="823" d="M127 899v350q0 185 184 185h201q184 0 184 -185v-350q0 -184 -184 -184h-201q-184 0 -184 184zM143 479v99h537v-99h-537zM236 899q0 -86 86 -86h180q86 0 86 86v350q0 86 -86 86h-180q-86 0 -86 -86v-350z" />
<glyph unicode="&#xbb;" horiz-adv-x="897" d="M98 193l289 423l-289 426h148l262 -385v-82l-262 -382h-148zM406 193l288 423l-288 426h147l262 -385v-82l-262 -382h-147z" />
<glyph unicode="&#xbc;" horiz-adv-x="1548" d="M61 696v99h154v516l-154 -49v102l177 70h96v-639h145v-99h-418zM254 0l782 1434h119l-782 -1434h-119zM823 293l416 444h113v-428h116v-106h-116v-105h116v-98h-368v98h135v105h-395zM967 309h268v277z" />
<glyph unicode="&#xbd;" horiz-adv-x="1601" d="M61 696v99h154v516l-154 -49v102l177 70h96v-639h145v-99h-418zM254 0l782 1434h119l-782 -1434h-119zM969 0v223q0 57 30.5 84t130.5 64l197 71q37 12 50.5 22.5t13.5 29.5v53q0 47 -15.5 62.5t-62.5 15.5h-137q-47 0 -62.5 -15.5t-15.5 -62.5v-31h-119v37q0 100 42 142 t142 42h162q100 0 142 -43t42 -141v-80q0 -57 -30.5 -84t-130.5 -63l-197 -72q-37 -12 -50.5 -22.5t-13.5 -28.5v-90h324v129h102v-242h-544z" />
<glyph unicode="&#xbe;" horiz-adv-x="1746" d="M86 911v2h119v-2q0 -66 14 -85t64 -19h155q49 0 63.5 19.5t14.5 88.5q0 68 -14.5 87.5t-63.5 19.5h-174v104h166q49 0 63.5 18.5t14.5 80t-14.5 80t-63.5 18.5h-139q-49 0 -63.5 -18.5t-14.5 -79.5v-8h-119v10q0 115 42 161t143 46h163q100 0 142.5 -46.5t42.5 -160.5 q0 -117 -76 -154q84 -25 84 -162q0 -121 -42 -168t-142 -47h-181q-100 0 -142 47.5t-42 167.5zM453 0l782 1434h119l-783 -1434h-118zM1022 293l416 444h112v-428h117v-106h-117v-105h117v-98h-369v98h136v105h-396zM1165 309h269v277z" />
<glyph unicode="&#xbf;" horiz-adv-x="1189" d="M123 -41v121q0 104 70 168q70 68 225 143l53 27q84 41 115.5 70.5t31.5 64.5v168h148v-164q0 -98 -64 -156q-70 -59 -231 -139l-53 -26q-88 -43 -118 -75t-30 -81v-125q0 -80 34 -114t114 -34h391q80 0 113.5 34t33.5 114v145h148v-141q0 -287 -287 -287h-407 q-287 0 -287 287zM618 883v223h148v-223h-148z" />
<glyph unicode="&#xc0;" horiz-adv-x="1585" d="M45 0v127h184l433 1180h-173v127h388l479 -1307h184v-127h-536v127h200l-106 295h-615l-106 -295h196v-127h-528zM528 1864h187l184 -295h-106zM530 557h519l-258 723z" />
<glyph unicode="&#xc1;" horiz-adv-x="1585" d="M45 0v127h184l433 1180h-173v127h388l479 -1307h184v-127h-536v127h200l-106 295h-615l-106 -295h196v-127h-528zM530 557h519l-258 723zM662 1569l184 295h186l-264 -295h-106z" />
<glyph unicode="&#xc2;" horiz-adv-x="1585" d="M45 0v127h184l433 1180h-173v127h388l479 -1307h184v-127h-536v127h200l-106 295h-615l-106 -295h196v-127h-528zM469 1569l238 246h147l238 -246h-150l-162 168l-162 -168h-149zM530 557h519l-258 723z" />
<glyph unicode="&#xc3;" horiz-adv-x="1585" d="M45 0v127h184l433 1180h-173v127h388l479 -1307h184v-127h-536v127h200l-106 295h-615l-106 -295h196v-127h-528zM465 1589v35q0 82 46 129t122 47q82 0 160 -63q82 -63 133 -64q68 0 67 68v43h103v-35q0 -82 -46 -129t-122 -47q-86 0 -168 63q-78 63 -125 64 q-68 0 -68 -68v-43h-102zM530 557h519l-258 723z" />
<glyph unicode="&#xc4;" horiz-adv-x="1585" d="M45 0v127h184l433 1180h-173v127h388l479 -1307h184v-127h-536v127h200l-106 295h-615l-106 -295h196v-127h-528zM526 1569v205h160v-205h-160zM530 557h519l-258 723zM874 1569v205h160v-205h-160z" />
<glyph unicode="&#xc5;" horiz-adv-x="1585" d="M45 0v127h184l433 1180h-173v127h388l479 -1307h184v-127h-536v127h200l-106 295h-615l-106 -295h196v-127h-528zM530 557h519l-258 723zM604 1692v77q0 66 29 94.5t94 28.5h107q66 0 94 -28.5t28 -94.5v-77q0 -66 -28 -94.5t-94 -28.5h-107q-66 0 -94.5 28.5t-28.5 94.5 zM702 1675q0 -20 21 -20h115q20 0 20 20v111q0 20 -20 20h-115q-21 0 -21 -20v-111z" />
<glyph unicode="&#xc6;" horiz-adv-x="2156" d="M25 0v127h188l653 1180h-164v127h1317v-369h-139v238h-620v-504h612v-131h-612v-537h620v238h139v-369h-1091v127h184v344h-547l-188 -344h184v-127h-536zM639 606h473v692h-94z" />
<glyph unicode="&#xc7;" horiz-adv-x="1298" d="M160 287v860q0 287 286 287h426q287 0 287 -287v-156h-147v160q0 80 -34 113.5t-114 33.5h-409q-80 0 -114 -33.5t-34 -113.5v-868q0 -80 34 -114t114 -34h409q80 0 114 34t34 114v159h147v-155q0 -287 -287 -287h-131v-115q0 -106 -37.5 -145t-142.5 -39h-119l-82 111 h172q49 0 63.5 14t14.5 59v115h-164q-287 0 -286 287z" />
<glyph unicode="&#xc8;" d="M94 0v127h205v1180h-205v127h1100v-369h-139v238h-609v-504h601v-131h-601v-537h609v238h139v-369h-1100zM471 1864h186l185 -295h-107z" />
<glyph unicode="&#xc9;" d="M94 0v127h205v1180h-205v127h1100v-369h-139v238h-609v-504h601v-131h-601v-537h609v238h139v-369h-1100zM604 1569l184 295h187l-264 -295h-107z" />
<glyph unicode="&#xca;" d="M94 0v127h205v1180h-205v127h1100v-369h-139v238h-609v-504h601v-131h-601v-537h609v238h139v-369h-1100zM412 1569l237 246h148l237 -246h-149l-162 168l-162 -168h-149z" />
<glyph unicode="&#xcb;" d="M94 0v127h205v1180h-205v127h1100v-369h-139v238h-609v-504h601v-131h-601v-537h609v238h139v-369h-1100zM469 1569v205h160v-205h-160zM817 1569v205h160v-205h-160z" />
<glyph unicode="&#xcc;" horiz-adv-x="794" d="M102 0v127h222v1180h-222v127h590v-127h-221v-1180h221v-127h-590zM145 1864h187l184 -295h-106z" />
<glyph unicode="&#xcd;" horiz-adv-x="794" d="M102 0v127h222v1180h-222v127h590v-127h-221v-1180h221v-127h-590zM279 1569l184 295h186l-264 -295h-106z" />
<glyph unicode="&#xce;" horiz-adv-x="794" d="M86 1569l238 246h147l238 -246h-150l-162 168l-161 -168h-150zM102 0v127h222v1180h-222v127h590v-127h-221v-1180h221v-127h-590z" />
<glyph unicode="&#xcf;" horiz-adv-x="794" d="M102 0v127h222v1180h-222v127h590v-127h-221v-1180h221v-127h-590zM143 1569v205h160v-205h-160zM492 1569v205h159v-205h-159z" />
<glyph unicode="&#xd0;" horiz-adv-x="1447" d="M94 0v127h205v530h-184v136h184v514h-205v127h907q287 0 287 -287v-860q0 -287 -287 -287h-907zM446 135h547q80 0 114 34t34 114v868q0 80 -34 113.5t-114 33.5h-547v-505h185v-136h-185v-522z" />
<glyph unicode="&#xd1;" horiz-adv-x="1613" d="M94 0v127h205v1180h-205v127h369l737 -1196v1069h-229v127h557v-127h-193v-1307h-141l-760 1235v-1108h230v-127h-570zM487 1589v35q0 82 46.5 129t121.5 47q82 0 160 -63q82 -63 133 -64q68 0 68 68v43h102v-35q0 -82 -46 -129t-122 -47q-86 0 -168 63q-78 63 -125 64 q-67 0 -67 -68v-43h-103z" />
<glyph unicode="&#xd2;" horiz-adv-x="1345" d="M160 287q0 -287 286 -287h453q287 0 287 287v860q0 287 -287 287h-453q-287 0 -286 -287v-860zM307 283v868q0 80 34 113.5t114 33.5h436q80 0 113.5 -33.5t33.5 -113.5v-868q0 -80 -33.5 -114t-113.5 -34h-436q-80 0 -114 34t-34 114zM422 1864h186l185 -295h-107z" />
<glyph unicode="&#xd3;" horiz-adv-x="1345" d="M160 287v860q0 287 286 287h453q287 0 287 -287v-860q0 -287 -287 -287h-453q-287 0 -286 287zM307 283q0 -80 34 -114t114 -34h436q80 0 113.5 34t33.5 114v868q0 80 -33.5 113.5t-113.5 33.5h-436q-80 0 -114 -33.5t-34 -113.5v-868zM555 1569l184 295h187l-264 -295 h-107z" />
<glyph unicode="&#xd4;" horiz-adv-x="1345" d="M160 287q0 -287 286 -287h453q287 0 287 287v860q0 287 -287 287h-453q-287 0 -286 -287v-860zM307 283v868q0 80 34 113.5t114 33.5h436q80 0 113.5 -33.5t33.5 -113.5v-868q0 -80 -33.5 -114t-113.5 -34h-436q-80 0 -114 34t-34 114zM362 1569l238 246h148l237 -246 h-149l-162 168l-162 -168h-150z" />
<glyph unicode="&#xd5;" horiz-adv-x="1345" d="M160 287q0 -287 286 -287h453q287 0 287 287v860q0 287 -287 287h-453q-287 0 -286 -287v-860zM307 283v868q0 80 34 113.5t114 33.5h436q80 0 113.5 -33.5t33.5 -113.5v-868q0 -80 -33.5 -114t-113.5 -34h-436q-80 0 -114 34t-34 114zM358 1589v35q0 82 46.5 129 t121.5 47q82 0 160 -63q82 -63 133 -64q68 0 68 68v43h102v-35q0 -82 -46 -129t-122 -47q-86 0 -168 63q-78 63 -125 64q-68 0 -67 -68v-43h-103z" />
<glyph unicode="&#xd6;" horiz-adv-x="1345" d="M160 287v860q0 287 286 287h453q287 0 287 -287v-860q0 -287 -287 -287h-453q-287 0 -286 287zM307 283q0 -80 34 -114t114 -34h436q80 0 113.5 34t33.5 114v868q0 80 -33.5 113.5t-113.5 33.5h-436q-80 0 -114 -33.5t-34 -113.5v-868zM420 1569v205h160v-205h-160z M768 1569v205h160v-205h-160z" />
<glyph unicode="&#xd7;" horiz-adv-x="1089" d="M193 412l268 270l-268 268l86 86l266 -266l268 270l86 -86l-268 -270l268 -268l-86 -86l-266 266l-268 -270z" />
<glyph unicode="&#xd8;" horiz-adv-x="1345" d="M160 287v860q0 287 286 287h453h23l55 122h135l-65 -147q139 -59 139 -262v-860q0 -287 -287 -287h-453h-30l-56 -123h-135l68 152q-133 59 -133 258zM307 283q0 -90 45 -123l510 1138h-407q-80 0 -114 -33.5t-34 -113.5v-868zM475 135h416q80 0 113.5 34t33.5 114v868 q0 94 -51 127z" />
<glyph unicode="&#xd9;" horiz-adv-x="1552" d="M86 1307v127h541v-127h-205v-1024q0 -80 33.5 -114t113.5 -34h414q80 0 113.5 34t33.5 114v1024h-204v127h540v-127h-188v-1020q0 -287 -287 -287h-430q-287 0 -287 287v1020h-188zM524 1864h187l184 -295h-107z" />
<glyph unicode="&#xda;" horiz-adv-x="1552" d="M86 1307v127h541v-127h-205v-1024q0 -80 33.5 -114t113.5 -34h414q80 0 113.5 34t33.5 114v1024h-204v127h540v-127h-188v-1020q0 -287 -287 -287h-430q-287 0 -287 287v1020h-188zM657 1569l185 295h186l-264 -295h-107z" />
<glyph unicode="&#xdb;" horiz-adv-x="1552" d="M86 1307v127h541v-127h-205v-1024q0 -80 33.5 -114t113.5 -34h414q80 0 113.5 34t33.5 114v1024h-204v127h540v-127h-188v-1020q0 -287 -287 -287h-430q-287 0 -287 287v1020h-188zM465 1569l237 246h148l237 -246h-149l-162 168l-162 -168h-149z" />
<glyph unicode="&#xdc;" horiz-adv-x="1552" d="M86 1307v127h541v-127h-205v-1024q0 -80 33.5 -114t113.5 -34h414q80 0 113.5 34t33.5 114v1024h-204v127h540v-127h-188v-1020q0 -287 -287 -287h-430q-287 0 -287 287v1020h-188zM522 1569v205h160v-205h-160zM870 1569v205h160v-205h-160z" />
<glyph unicode="&#xdd;" horiz-adv-x="1482" d="M49 1307v127h524v-127h-186l356 -660l357 660h-187v127h521v-127h-179l-440 -799v-381h238v-127h-623v127h238v381l-441 799h-178zM625 1569l184 295h186l-264 -295h-106z" />
<glyph unicode="&#xde;" horiz-adv-x="1380" d="M102 0v127h205v1180h-205v127h590v-127h-237v-172h524q287 0 287 -287v-250q0 -287 -287 -287h-524v-184h237v-127h-590zM455 446h516q80 0 113.5 34t33.5 114v258q0 80 -33.5 113.5t-113.5 33.5h-516v-553z" />
<glyph unicode="&#xdf;" horiz-adv-x="1232" d="M74 0v127h176v1090q0 279 278 278h291q150 0 214.5 -87t64.5 -304q0 -164 -33 -238t-115 -94q88 -16 126 -97t38 -261q0 -229 -64.5 -321.5t-213.5 -92.5h-279v127h274q80 0 111 55q33 57 33 235.5t-31 233.5q-31 57 -113 58h-233v122h217q80 0 111 54q33 51 32.5 215 t-32.5 215q-31 53 -111 53h-283q-76 0 -109.5 -34t-33.5 -109v-1225h-315z" />
<glyph unicode="&#xe0;" horiz-adv-x="1204" d="M106 319q0 168 64 232q63 63 215 80q190 23 438 31v178q0 78 -32.5 110.5t-110.5 32.5h-254q-78 0 -110.5 -32.5t-32.5 -110.5v-31h-140v18q0 279 279 279h262q279 0 279 -279v-708h172v-119h-312v152q-74 -86 -163 -123t-232 -37q-172 0 -247 76.5t-75 250.5zM246 319 q0 -117 39 -160.5t145 -43.5q127 0 209 30q80 29 184 103v317l-434 -49q-84 -10 -113.5 -49t-29.5 -148zM317 1536h187l184 -295h-106z" />
<glyph unicode="&#xe1;" horiz-adv-x="1204" d="M106 319q0 168 64 232q63 63 215 80q190 23 438 31v178q0 78 -32.5 110.5t-110.5 32.5h-254q-78 0 -110.5 -32.5t-32.5 -110.5v-31h-140v18q0 279 279 279h262q279 0 279 -279v-708h172v-119h-312v152q-74 -86 -163 -123t-232 -37q-172 0 -247 76.5t-75 250.5zM246 319 q0 -117 39 -160.5t145 -43.5q127 0 209 30q80 29 184 103v317l-434 -49q-84 -10 -113.5 -49t-29.5 -148zM451 1241l184 295h186l-264 -295h-106z" />
<glyph unicode="&#xe2;" horiz-adv-x="1204" d="M106 319q0 168 64 232q63 63 215 80q190 23 438 31v178q0 78 -32.5 110.5t-110.5 32.5h-254q-78 0 -110.5 -32.5t-32.5 -110.5v-31h-140v18q0 279 279 279h262q279 0 279 -279v-708h172v-119h-312v152q-74 -86 -163 -123t-232 -37q-172 0 -247 76.5t-75 250.5zM246 319 q0 -117 39 -160.5t145 -43.5q127 0 209 30q80 29 184 103v317l-434 -49q-84 -10 -113.5 -49t-29.5 -148zM258 1241l238 246h147l238 -246h-150l-162 168l-161 -168h-150z" />
<glyph unicode="&#xe3;" horiz-adv-x="1204" d="M106 319q0 168 64 232q63 63 215 80q190 23 438 31v178q0 78 -32.5 110.5t-110.5 32.5h-254q-78 0 -110.5 -32.5t-32.5 -110.5v-31h-140v18q0 279 279 279h262q279 0 279 -279v-708h172v-119h-312v152q-74 -86 -163 -123t-232 -37q-172 0 -247 76.5t-75 250.5zM246 319 q0 -117 39 -160.5t145 -43.5q127 0 209 30q80 29 184 103v317l-434 -49q-84 -10 -113.5 -49t-29.5 -148zM254 1262v34q0 82 46 129.5t122 47.5q82 0 160 -64q82 -63 133 -63q68 0 67 67v43h103v-35q0 -82 -46 -129t-122 -47q-86 0 -168 64q-78 63 -125 63q-68 1 -68 -67v-43 h-102z" />
<glyph unicode="&#xe4;" horiz-adv-x="1204" d="M106 319q0 168 64 232q63 63 215 80q190 23 438 31v178q0 78 -32.5 110.5t-110.5 32.5h-254q-78 0 -110.5 -32.5t-32.5 -110.5v-31h-140v18q0 279 279 279h262q279 0 279 -279v-708h172v-119h-312v152q-74 -86 -163 -123t-232 -37q-172 0 -247 76.5t-75 250.5zM246 319 q0 -117 39 -160.5t145 -43.5q127 0 209 30q80 29 184 103v317l-434 -49q-84 -10 -113.5 -49t-29.5 -148zM315 1241v205h160v-205h-160zM664 1241v205h159v-205h-159z" />
<glyph unicode="&#xe5;" horiz-adv-x="1204" d="M106 319q0 168 64 232q63 63 215 80q190 23 438 31v178q0 78 -32.5 110.5t-110.5 32.5h-254q-78 0 -110.5 -32.5t-32.5 -110.5v-31h-140v18q0 279 279 279h262q279 0 279 -279v-708h172v-119h-312v152q-74 -86 -163 -123t-232 -37q-172 0 -247 76.5t-75 250.5zM246 319 q0 -117 39 -160.5t145 -43.5q127 0 209 30q80 29 184 103v317l-434 -49q-84 -10 -113.5 -49t-29.5 -148zM393 1364v78q0 66 29 94.5t94 28.5h107q66 0 94 -29t28 -94v-78q0 -66 -28 -94.5t-94 -28.5h-107q-66 0 -94.5 28.5t-28.5 94.5zM492 1348q0 -20 20 -21h115 q20 0 20 21v110q0 20 -20 21h-115q-20 -1 -20 -21v-110z" />
<glyph unicode="&#xe6;" horiz-adv-x="1789" d="M106 319q0 168 64 232q63 63 215 80q190 23 438 31v178q0 78 -32.5 110.5t-110.5 32.5h-254q-78 0 -110.5 -32.5t-32.5 -110.5v-31h-140v18q0 279 279 279h262q133 0 209 -88q76 88 209 88h291q279 0 278 -279v-303h-708v-258q0 -78 32.5 -110.5t110.5 -32.5h283 q78 0 110.5 32.5t32.5 110.5v80h139v-67q0 -279 -278 -279h-291q-217 0 -264 166q-131 -174 -410 -174q-172 0 -247 76.5t-75 250.5zM246 319q0 -117 39 -160.5t145 -43.5q127 0 209 30q80 29 184 103v317l-434 -49q-84 -10 -113.5 -49t-29.5 -148zM963 639h569v201 q0 78 -33 110.5t-110 32.5h-283q-78 0 -110.5 -32.5t-32.5 -110.5v-201z" />
<glyph unicode="&#xe7;" horiz-adv-x="1077" d="M127 279v548q0 279 279 279h278q279 0 279 -279v-73h-140v82q0 78 -32.5 110.5t-110.5 32.5h-270q-78 0 -111 -33t-33 -110v-566q0 -78 33 -110.5t111 -32.5h270q78 0 110.5 33t32.5 110v82h140v-73q0 -279 -279 -279h-47v-115q0 -106 -38 -145t-142 -39h-119l-82 111 h172q49 0 63.5 14t14.5 59v115h-100q-279 0 -279 279z" />
<glyph unicode="&#xe8;" horiz-adv-x="1093" d="M127 279v548q0 279 279 279h290q279 0 279 -279v-303h-709v-258q0 -78 33 -110.5t111 -32.5h282q78 0 111 32.5t33 110.5v80h139v-67q0 -279 -279 -279h-290q-279 0 -279 279zM266 639h570v201q0 78 -33 110.5t-111 32.5h-282q-78 0 -111 -32.5t-33 -110.5v-201z M299 1536h186l185 -295h-107z" />
<glyph unicode="&#xe9;" horiz-adv-x="1093" d="M127 279v548q0 279 279 279h290q279 0 279 -279v-303h-709v-258q0 -78 33 -110.5t111 -32.5h282q78 0 111 32.5t33 110.5v80h139v-67q0 -279 -279 -279h-290q-279 0 -279 279zM266 639h570v201q0 78 -33 110.5t-111 32.5h-282q-78 0 -111 -32.5t-33 -110.5v-201z M432 1241l184 295h187l-264 -295h-107z" />
<glyph unicode="&#xea;" horiz-adv-x="1093" d="M127 279v548q0 279 279 279h290q279 0 279 -279v-303h-709v-258q0 -78 33 -110.5t111 -32.5h282q78 0 111 32.5t33 110.5v80h139v-67q0 -279 -279 -279h-290q-279 0 -279 279zM240 1241l237 246h148l237 -246h-149l-162 168l-162 -168h-149zM266 639h570v201 q0 78 -33 110.5t-111 32.5h-282q-78 0 -111 -32.5t-33 -110.5v-201z" />
<glyph unicode="&#xeb;" horiz-adv-x="1093" d="M127 279v548q0 279 279 279h290q279 0 279 -279v-303h-709v-258q0 -78 33 -110.5t111 -32.5h282q78 0 111 32.5t33 110.5v80h139v-67q0 -279 -279 -279h-290q-279 0 -279 279zM266 639h570v201q0 78 -33 110.5t-111 32.5h-282q-78 0 -111 -32.5t-33 -110.5v-201z M297 1241v205h160v-205h-160zM645 1241v205h160v-205h-160z" />
<glyph unicode="&#xec;" horiz-adv-x="659" d="M37 1495h186l185 -295h-107zM82 0v119h184v868h-184v119h324v-987h176v-119h-500z" />
<glyph unicode="&#xed;" horiz-adv-x="659" d="M82 0v119h184v868h-184v119h324v-987h176v-119h-500zM193 1200l184 295h186l-264 -295h-106z" />
<glyph unicode="&#xee;" horiz-adv-x="659" d="M20 1200l238 246h148l237 -246h-149l-162 168l-162 -168h-150zM82 0v119h184v868h-184v119h324v-987h176v-119h-500z" />
<glyph unicode="&#xef;" horiz-adv-x="659" d="M78 1262v204h160v-204h-160zM82 0v119h184v868h-184v119h324v-987h176v-119h-500zM426 1262v204h160v-204h-160z" />
<glyph unicode="&#xf0;" horiz-adv-x="1130" d="M127 279v503q0 145 78 212t254 67q98 0 176 -25q76 -20 119 -51q53 -33 110 -84v217q0 59 -31.5 87t-119.5 57l-140 43l-124 -121h-144l160 153l-209 64v106l301 -80l109 105h143l-139 -135l47 -13q150 -39 217 -92q70 -51 70 -174v-839q0 -279 -279 -279h-319 q-279 0 -279 279zM266 270q0 -78 33 -110.5t111 -32.5h311q78 0 110.5 32.5t32.5 110.5v531q-104 74 -184 102q-84 31 -219 31q-111 0 -153 -32t-42 -111v-521z" />
<glyph unicode="&#xf1;" horiz-adv-x="1343" d="M74 0v119h184v868h-184v119h323v-150q100 84 176 121q78 39 213 39q164 0 240 -67.5t76 -210.5v-719h172v-119h-488v119h177v727q0 80 -40 111.5t-139 31.5q-121 0 -204 -31q-76 -29 -183 -102v-737h176v-119h-499zM371 1262v34q0 82 46 129.5t122 47.5q82 0 159 -64 q82 -63 133 -63q68 0 68 67v43h102v-35q0 -82 -46 -129t-121 -47q-86 0 -168 64q-78 63 -125 63q-68 1 -68 -67v-43h-102z" />
<glyph unicode="&#xf2;" horiz-adv-x="1116" d="M127 279q0 -279 279 -279h305q279 0 278 279v548q0 279 -278 279h-305q-279 0 -279 -279v-548zM266 270v566q0 78 33 110.5t111 32.5h297q76 0 109.5 -33t33.5 -110v-566q0 -78 -34 -110.5t-109 -32.5h-297q-78 0 -111 33t-33 110zM307 1536h187l184 -295h-107z" />
<glyph unicode="&#xf3;" horiz-adv-x="1116" d="M127 279v548q0 279 279 279h305q279 0 278 -279v-548q0 -279 -278 -279h-305q-279 0 -279 279zM266 270q0 -78 33 -110.5t111 -32.5h297q76 0 109.5 32.5t33.5 110.5v566q0 78 -34 110.5t-109 32.5h-297q-78 0 -111 -33t-33 -110v-566zM440 1241l185 295h186l-264 -295 h-107z" />
<glyph unicode="&#xf4;" horiz-adv-x="1116" d="M127 279q0 -279 279 -279h305q279 0 278 279v548q0 279 -278 279h-305q-279 0 -279 -279v-548zM248 1241l237 246h148l237 -246h-149l-162 168l-162 -168h-149zM266 270v566q0 78 33 110.5t111 32.5h297q76 0 109.5 -33t33.5 -110v-566q0 -78 -34 -110.5t-109 -32.5h-297 q-78 0 -111 33t-33 110z" />
<glyph unicode="&#xf5;" horiz-adv-x="1116" d="M127 279q0 -279 279 -279h305q279 0 278 279v548q0 279 -278 279h-305q-279 0 -279 -279v-548zM244 1262v34q0 82 46 129.5t122 47.5q82 0 159 -64q82 -63 134 -63q68 0 67 67v43h102v-35q0 -82 -46 -129t-121 -47q-86 0 -168 64q-78 63 -125 63q-68 0 -68 -67v-43h-102z M266 270v566q0 78 33 110.5t111 32.5h297q76 0 109.5 -33t33.5 -110v-566q0 -78 -34 -110.5t-109 -32.5h-297q-78 0 -111 33t-33 110z" />
<glyph unicode="&#xf6;" horiz-adv-x="1116" d="M127 279v548q0 279 279 279h305q279 0 278 -279v-548q0 -279 -278 -279h-305q-279 0 -279 279zM266 270q0 -78 33 -110.5t111 -32.5h297q76 0 109.5 32.5t33.5 110.5v566q0 78 -34 110.5t-109 32.5h-297q-78 0 -111 -33t-33 -110v-566zM305 1241v205h160v-205h-160z M653 1241v205h160v-205h-160z" />
<glyph unicode="&#xf7;" horiz-adv-x="1089" d="M160 674v127h770v-127h-770zM455 309v201h180v-201h-180zM455 965v200h180v-200h-180z" />
<glyph unicode="&#xf8;" horiz-adv-x="1116" d="M127 279v548q0 279 279 279h305h12l49 123h127l-57 -144q147 -53 147 -258v-548q0 -279 -278 -279h-305h-9l-49 -123h-127l58 141q-152 53 -152 261zM266 270q0 -102 62 -129l342 838h-260q-78 0 -111 -32.5t-33 -110.5v-566zM451 127h256q76 0 109.5 32.5t33.5 110.5 v566q0 102 -57 129z" />
<glyph unicode="&#xf9;" d="M70 987v119h311v-846q0 -80 40 -111.5t138 -31.5q123 0 205 30q76 29 182 103v737h-205v119h344v-987h177v-119h-316v150q-98 -84 -178 -123q-76 -37 -211 -37q-164 0 -239.5 67.5t-75.5 210.5v719h-172zM385 1536h186l185 -295h-107z" />
<glyph unicode="&#xfa;" d="M70 987v119h311v-846q0 -80 40 -111.5t138 -31.5q123 0 205 30q76 29 182 103v737h-205v119h344v-987h177v-119h-316v150q-98 -84 -178 -123q-76 -37 -211 -37q-164 0 -239.5 67.5t-75.5 210.5v719h-172zM518 1241l184 295h187l-264 -295h-107z" />
<glyph unicode="&#xfb;" d="M70 987v119h311v-846q0 -80 40 -111.5t138 -31.5q123 0 205 30q76 29 182 103v737h-205v119h344v-987h177v-119h-316v150q-98 -84 -178 -123q-76 -37 -211 -37q-164 0 -239.5 67.5t-75.5 210.5v719h-172zM326 1241l237 246h148l237 -246h-149l-162 168l-162 -168h-149z " />
<glyph unicode="&#xfc;" d="M70 987v119h311v-846q0 -80 40 -111.5t138 -31.5q123 0 205 30q76 29 182 103v737h-205v119h344v-987h177v-119h-316v150q-98 -84 -178 -123q-76 -37 -211 -37q-164 0 -239.5 67.5t-75.5 210.5v719h-172zM383 1241v205h160v-205h-160zM731 1241v205h160v-205h-160z" />
<glyph unicode="&#xfd;" horiz-adv-x="1208" d="M33 987v119h418v-119h-146l287 -829l311 829h-141v119h414v-119h-134l-460 -1188h118v-127h-421v127h170l73 201l-358 987h-131zM487 1241l185 295h186l-264 -295h-107z" />
<glyph unicode="&#xfe;" horiz-adv-x="1261" d="M74 -209h184v1585h-184v119h323v-541q51 45 109 84q113 76 297 76q176 0 254 -66.5t78 -211.5v-566q0 -145 -78 -211.5t-254 -66.5q-98 0 -178 22q-78 25 -119 52q-45 31 -109 86v-361h217v-119h-540v119zM397 252q104 -74 185 -102q82 -31 219 -31q111 0 152.5 31.5 t41.5 111.5v582q0 80 -42 111.5t-152 31.5q-137 0 -219 -31q-80 -29 -185 -102v-602z" />
<glyph unicode="&#xff;" horiz-adv-x="1208" d="M33 987v119h418v-119h-146l287 -829l311 829h-141v119h414v-119h-134l-460 -1188h118v-127h-421v127h170l73 201l-358 987h-131zM352 1241v205h160v-205h-160zM700 1241v205h160v-205h-160z" />
<glyph unicode="&#x152;" horiz-adv-x="2070" d="M160 287v860q-1 287 286 287h1487v-369h-139v238h-608v-504h600v-131h-600v-537h608v238h139v-369h-1487q-287 0 -286 287zM307 283q0 -80 34 -114t114 -34h583v1163h-583q-80 0 -114 -33.5t-34 -113.5v-868z" />
<glyph unicode="&#x153;" horiz-adv-x="1816" d="M127 279v548q0 279 279 279h305q133 0 209 -88q76 88 208 88h291q279 0 279 -279v-303h-709v-258q0 -78 34 -110.5t110 -32.5h282q76 0 110 32.5t34 110.5v80h139v-67q0 -279 -279 -279h-291q-133 0 -208 88q-76 -88 -209 -88h-305q-279 0 -279 279zM266 270 q0 -78 33 -110.5t111 -32.5h297q76 0 109.5 32.5t33.5 110.5v566q0 78 -34 110.5t-109 32.5h-297q-78 0 -111 -33t-33 -110v-566zM989 639h570v201q0 78 -33 110.5t-111 32.5h-282q-76 0 -110 -32.5t-34 -110.5v-201z" />
<glyph unicode="&#x178;" horiz-adv-x="1482" d="M49 1307v127h524v-127h-186l356 -660l357 660h-187v127h521v-127h-179l-440 -799v-381h238v-127h-623v127h238v381l-441 799h-178zM489 1569v205h160v-205h-160zM838 1569v205h159v-205h-159z" />
<glyph unicode="&#x2c6;" horiz-adv-x="1400" d="M389 1569l238 246h147l238 -246h-150l-162 168l-161 -168h-150z" />
<glyph unicode="&#x2dc;" horiz-adv-x="1417" d="M393 1589v35q0 82 46 129t122 47q82 0 160 -63q82 -63 133 -64q68 0 68 68v43h102v-35q0 -82 -46 -129t-122 -47q-86 0 -168 63q-78 63 -125 64q-68 0 -67 -68v-43h-103z" />
<glyph unicode="&#x2000;" horiz-adv-x="946" />
<glyph unicode="&#x2001;" horiz-adv-x="1892" />
<glyph unicode="&#x2002;" horiz-adv-x="946" />
<glyph unicode="&#x2003;" horiz-adv-x="1892" />
<glyph unicode="&#x2004;" horiz-adv-x="630" />
<glyph unicode="&#x2005;" horiz-adv-x="473" />
<glyph unicode="&#x2006;" horiz-adv-x="315" />
<glyph unicode="&#x2007;" horiz-adv-x="315" />
<glyph unicode="&#x2008;" horiz-adv-x="236" />
<glyph unicode="&#x2009;" horiz-adv-x="378" />
<glyph unicode="&#x200a;" horiz-adv-x="105" />
<glyph unicode="&#x2010;" horiz-adv-x="917" d="M156 606v139h606v-139h-606z" />
<glyph unicode="&#x2011;" horiz-adv-x="917" d="M156 606v139h606v-139h-606z" />
<glyph unicode="&#x2012;" horiz-adv-x="917" d="M156 606v139h606v-139h-606z" />
<glyph unicode="&#x2013;" horiz-adv-x="1191" d="M156 606v139h880v-139h-880z" />
<glyph unicode="&#x2014;" horiz-adv-x="1712" d="M156 608v135h1400v-135h-1400z" />
<glyph unicode="&#x2018;" horiz-adv-x="507" d="M156 973v151q0 51 12 80q12 33 63 113l74 117h82l-129 -252h94v-209h-196z" />
<glyph unicode="&#x2019;" horiz-adv-x="507" d="M121 973l129 252h-94v209h196v-152q0 -51 -12 -82q-14 -33 -64 -110l-73 -117h-82z" />
<glyph unicode="&#x201a;" horiz-adv-x="507" d="M121 -252l129 252h-94v209h196v-152q0 -53 -12 -80q-12 -33 -64 -112l-73 -117h-82z" />
<glyph unicode="&#x201c;" horiz-adv-x="815" d="M156 973v151q0 51 12 80q12 33 63 113l74 117h82l-129 -252h94v-209h-196zM463 973v151q0 51 12 80q12 33 64 113l73 117h82l-129 -252h94v-209h-196z" />
<glyph unicode="&#x201d;" horiz-adv-x="815" d="M121 973l129 252h-94v209h196v-152q0 -51 -12 -82q-14 -33 -64 -110l-73 -117h-82zM428 973l129 252h-94v209h196v-152q0 -51 -12 -82q-14 -33 -63 -110l-74 -117h-82z" />
<glyph unicode="&#x201e;" horiz-adv-x="815" d="M121 -252l129 252h-94v209h196v-152q0 -53 -12 -80q-12 -33 -64 -112l-73 -117h-82zM428 -252l129 252h-94v209h196v-152q0 -53 -12 -80q-12 -33 -63 -112l-74 -117h-82z" />
<glyph unicode="&#x2022;" horiz-adv-x="925" d="M274 741q0 104 43 146.5t146 42.5q104 0 146 -42t42 -146.5t-43 -146.5t-145 -42q-104 0 -146.5 43t-42.5 145z" />
<glyph unicode="&#x2026;" horiz-adv-x="1368" d="M156 0v209h196v-209h-196zM586 0v209h196v-209h-196zM1016 0v209h196v-209h-196z" />
<glyph unicode="&#x202f;" horiz-adv-x="378" />
<glyph unicode="&#x2039;" horiz-adv-x="589" d="M82 575v82l262 385h148l-289 -426l289 -423h-148z" />
<glyph unicode="&#x203a;" horiz-adv-x="589" d="M98 193l289 423l-289 426h148l262 -385v-82l-262 -382h-148z" />
<glyph unicode="&#x205f;" horiz-adv-x="473" />
<glyph unicode="&#x20ac;" horiz-adv-x="1409" d="M102 481v131h168v226h-168v131h168v178q0 287 287 287h426q287 0 287 -287v-156h-148v160q0 80 -33.5 113.5t-113.5 33.5h-410q-80 0 -113.5 -33.5t-33.5 -113.5v-182h524v-131h-524v-226h524v-131h-524v-198q0 -80 33.5 -114t113.5 -34h410q80 0 113.5 34t33.5 114v159 h148v-155q0 -287 -287 -287h-426q-287 0 -287 287v194h-168z" />
<glyph unicode="&#x2122;" horiz-adv-x="1746" d="M86 1198v236h598v-236h-88v154h-166v-578h102v-78h-296v78h102v578h-164v-154h-88zM780 1356v78h213l232 -514l231 514h205v-78h-102v-582h102v-78h-297v78h102v471l-204 -463h-70l-209 463v-471h102v-78h-297v78h103v582h-111z" />
<glyph unicode="&#x25fc;" horiz-adv-x="1105" d="M0 0v1106h1106v-1106h-1106z" />
</font>
</defs>
</svg>
