<?xml version="1.0" encoding="utf-8"?>
<!-- Generator: Adobe Illustrator 22.1.0, SVG Export Plug-In . SVG Version: 6.00 Build 0)  -->
<svg version="1.1" xmlns="http://www.w3.org/2000/svg" xmlns:xlink="http://www.w3.org/1999/xlink" x="0px" y="0px"
	 viewBox="0 0 432 432" style="enable-background:new 0 0 0 0;" xml:space="preserve">
<style type="text/css">
	.st0{fill:#B1864F;}
	.st1{fill:#FEFEFE;}
	.st2{fill:#96734F;}
	.st3{fill:#B18650;}
</style>
<g id="G">
	<g>
		<path d="M303.8,348.1c0,11.6-11.1,17.5-33.2,17.6l-114.3,0.5c-21.5,0.1-32.3-5.7-32.3-17.3v-156c0-11.7,11-17.6,33-17.7l113.6-0.5
			c22.1-0.1,33.2,5.7,33.2,17.4V233h-54.6v-33.6h-70.8v142.1l70.8-0.3v-53.4h-40.4v-24.4h95V348.1z"/>
	</g>
</g>
<g id="_x3C_Type_x3E__4_">
</g>
<g id="_x3C_Type_x3E__3_">
</g>
<g id="_x3C_Type_x3E__2_">
</g>
<g id="_x3C_Type_x3E__1_">
</g>
<g id="FIT">
	<g>
		<path class="st0" d="M265.5,297.2v-22.5l27.4,0.1v2.2l-21.4-0.1v7.5l16.2,0.1v2.2l-16.2-0.1v10.6L265.5,297.2z"/>
		<path class="st0" d="M281.7,324.3l2.9,0v2.5l-11.8-0.1v-2.5l2.9,0v-17.4l-2.9,0v-2.5l11.8,0.1v2.5l-2.9,0V324.3z"/>
		<path class="st0" d="M275.4,356.3v-10.1V336l-10.2-0.1v-2.2l26.9,0.1v2.2l-10.7-0.1v20.3L275.4,356.3z"/>
	</g>
</g>
<g id="_x3C_Type_x3E_">
</g>
<g id="Layer_8_xA0_Image_1_">
	<path class="st1" d="M215.7,45.6c-0.3-0.6-0.6-0.5-0.9,0c-0.1,0.3-0.2,0.6-0.2,0.9c-3.4,15.1-6.8,30.2-10.2,45.2
		c-5.7,25.3-11.4,50.6-17.2,75.9c-0.3,1.2-0.1,1.5,1.2,1.5c2.6,0,5.1,0,7.7,0c6.5,0,13,0,19.4-0.1c0.3,0,0.6,0.1,0.8,0.1
		c8.2,0,16.4,0,24.6,0c2.8,0,2.4,0.1,1.8-2.3c-6-27.2-12-54.5-18-81.7c-2.2-9.8-4.3-19.7-6.5-29.5C217.6,52.3,217,48.8,215.7,45.6z
		 M327.8,80.6c-0.5,0.5-0.8,0.8-1.1,1.2c-6.8,7.8-13.7,15.5-20.5,23.3c-5.3,6-10.6,12.1-15.9,18.1c-3.7,4.3-7.5,8.5-11.2,12.8
		c-2.4,2.8-5,5.6-7.5,8.4c-6.9,7.8-13.6,15.7-21.2,22.9c-0.6,0.5-1.7,1.1-1.4,1.7c0.3,0.7,1.5,0.4,2.4,0.4c11.5,0,22.9,0,34.4,0
		c1.5,0,3,0,4.6,0c0.5,0,0.9-0.1,1.1-0.7c0.9-2.1,1.9-4.1,2.8-6.2c5.6-13.6,11.2-27.3,16.8-40.9c5.2-12.6,10.3-25.2,15.5-37.8
		C327.1,82.8,327.6,81.9,327.8,80.6z M106,86.1c-0.2,0.4,0,0.7,0.1,0.9c1.4,3.4,2.8,6.9,4.2,10.3c3.7,9.1,7.4,18.2,11.1,27.3
		c3.8,9.4,7.6,18.7,11.4,28.1c2.1,5.2,4,10.4,6.5,15.5c0.5,1,1.1,1.3,2.1,1.3c12.9,0,25.8,0,38.7,0c0.2,0,0.5,0,0.7,0
		c0.3,0,0.7,0,0.8-0.4c0.1-0.3-0.2-0.5-0.4-0.7c-0.7-0.8-1.3-1.6-2.1-2.3c-3.8-3.8-7.3-7.9-11-11.9c-5.7-6.2-11.3-12.4-17-18.6
		c-8.1-8.8-16.1-17.6-24.2-26.5c-6-6.6-12-13.2-18-19.7C108.1,88.3,107.1,87.2,106,86.1z M189.8,132.7c0.1-0.7-0.6-1-1-1.5
		c-6.4-6.6-12.8-13.3-19.3-19.9c-0.2-0.2-0.4-0.5-0.8-0.4c-0.5,0.2-0.4,0.6-0.5,1c-2.3,8.4-4.3,16.9-6.9,25.2
		c-0.5,1.5-0.1,2.4,0.9,3.5c6.6,7.2,13.2,14.5,19.8,21.8c0.3,0.3,0.5,0.9,1,0.7c0.5-0.1,0.4-0.7,0.5-1.1c1.4-6.8,2.9-13.5,4.3-20.3
		C188.5,138.7,189.2,135.7,189.8,132.7z"/>
	<path class="st2" d="M327.8,80.6c-0.2,1.3-0.8,2.2-1.2,3.2c-5.1,12.6-10.3,25.2-15.5,37.8c-5.6,13.6-11.2,27.3-16.8,40.9
		c-0.9,2.1-1.9,4.1-2.8,6.2c-0.2,0.5-0.6,0.7-1.1,0.7c-1.5,0-3,0-4.6,0c-11.5,0-22.9,0-34.4,0c-0.8,0-2,0.3-2.4-0.4
		c-0.3-0.6,0.8-1.2,1.4-1.7c7.6-7.1,14.3-15.1,21.2-22.9c2.5-2.8,5-5.6,7.5-8.4c3.7-4.3,7.4-8.6,11.2-12.8
		c5.3-6.1,10.6-12.1,15.9-18.1c6.8-7.8,13.7-15.5,20.5-23.3C327,81.4,327.4,81.1,327.8,80.6z"/>
	<path class="st3" d="M215.5,169.1c-6.5,0-13,0-19.4,0.1c-2.6,0-5.1,0-7.7,0c-1.3,0-1.5-0.3-1.2-1.5c5.7-25.3,11.5-50.6,17.2-75.9
		c3.4-15.1,6.8-30.2,10.2-45.2c0.1-0.3,0.1-0.6,0.2-0.9c0.2-0.6,0.5-0.7,0.9,0c-0.7,0.2-0.7,0.8-0.6,1.4c0.5,2.6,0.3,5.3,0.4,7.9
		c0.1,4.5,0.4,9.1,0.3,13.6c-0.2,16.7,0.1,33.5-0.2,50.2C215.3,135.5,215.5,152.3,215.5,169.1z"/>
	<path class="st3" d="M106,86.1c1.1,1.1,2.1,2.2,3.1,3.3c6,6.6,12,13.1,18,19.7c8.1,8.8,16.1,17.6,24.2,26.5
		c5.7,6.2,11.3,12.4,17,18.6c3.6,4,7.2,8.1,11,11.9c0.7,0.7,1.4,1.5,2.1,2.3c0.2,0.2,0.4,0.4,0.4,0.7c-0.1,0.4-0.5,0.3-0.8,0.4
		c-0.2,0-0.5,0-0.7,0c-12.9,0-25.8,0-38.7,0c-1,0-1.6-0.2-2.1-1.3c-2.5-5-4.4-10.3-6.5-15.5c-3.9-9.3-7.6-18.7-11.4-28.1
		c-3.7-9.1-7.4-18.2-11.1-27.3c-1.4-3.4-2.8-6.9-4.2-10.3C106,86.8,105.8,86.5,106,86.1z"/>
	<path class="st2" d="M215.5,169.1c0-16.8-0.2-33.6,0.1-50.4c0.3-16.8,0-33.5,0.2-50.2c0-4.6-0.2-9.1-0.3-13.6
		c-0.1-2.6,0.2-5.3-0.4-7.9c-0.1-0.5-0.1-1.1,0.6-1.4c1.3,3.2,1.9,6.7,2.6,10.1c2.2,9.8,4.3,19.7,6.5,29.5c6,27.2,12,54.5,18,81.7
		c0.5,2.4,1,2.3-1.8,2.3c-8.2,0-16.4,0-24.6,0C216.1,169.2,215.8,169.2,215.5,169.1z"/>
	<path class="st3" d="M189.8,132.7c-0.6,3.1-1.3,6-1.9,9c-1.4,6.8-2.9,13.5-4.3,20.3c-0.1,0.4,0,1-0.5,1.1c-0.5,0.1-0.7-0.4-1-0.7
		c-6.6-7.3-13.2-14.6-19.8-21.8c-1-1.1-1.3-1.9-0.9-3.5c2.6-8.3,4.7-16.8,6.9-25.2c0.1-0.4,0.1-0.8,0.5-1c0.4-0.1,0.6,0.2,0.8,0.4
		c6.4,6.6,12.8,13.3,19.3,19.9C189.2,131.6,189.9,132,189.8,132.7z"/>
	<path class="st2" d="M240.3,132.7c0.6,3.1,1.3,6,1.9,9c1.4,6.8,2.9,13.5,4.3,20.3c0.1,0.4,0,1,0.5,1.1c0.5,0.1,0.7-0.4,1-0.7
		c6.6-7.3,13.2-14.6,19.8-21.8c1-1.1,1.3-1.9,0.9-3.5c-2.6-8.3-4.7-16.8-6.9-25.2c-0.1-0.4-0.1-0.8-0.5-1c-0.4-0.1-0.6,0.2-0.8,0.4
		c-6.4,6.6-12.8,13.3-19.3,19.9C240.8,131.6,240.2,132,240.3,132.7z"/>
</g>
<g id="Layer_11_xA0_Image_1_">
</g>
</svg>
